<svg width="121" height="120" viewBox="0 0 121 120" fill="none" xmlns="http://www.w3.org/2000/svg">
<path fill-rule="evenodd" clip-rule="evenodd" d="M117.715 60C117.715 91.4802 92.1951 117 60.7148 117C29.2346 117 3.71484 91.4802 3.71484 60C3.71484 28.5198 29.2346 3 60.7148 3C92.1951 3 117.715 28.5198 117.715 60ZM120.715 60C120.715 93.1371 93.8519 120 60.7148 120C27.5778 120 0.714844 93.1371 0.714844 60C0.714844 26.8629 27.5778 0 60.7148 0C93.8519 0 120.715 26.8629 120.715 60ZM58.2651 76.888L87.4825 48.888L81.9472 43.112L55.1425 68.7999L40.0644 57.8561L35.3653 64.3305L53.1479 77.2372L55.8524 79.2001L58.2651 76.888Z" fill="black"/>
</svg>
