<svg width="121" height="120" viewBox="0 0 121 120" fill="none" xmlns="http://www.w3.org/2000/svg">
<path fill-rule="evenodd" clip-rule="evenodd" d="M60.7148 117C92.1951 117 117.715 91.4802 117.715 60C117.715 28.5198 92.1951 3 60.7148 3C29.2346 3 3.71484 28.5198 3.71484 60C3.71484 91.4802 29.2346 117 60.7148 117ZM60.7148 120C93.8519 120 120.715 93.1371 120.715 60C120.715 26.8629 93.8519 0 60.7148 0C27.5778 0 0.714844 26.8629 0.714844 60C0.714844 93.1371 27.5778 120 60.7148 120ZM55.7651 60.707L37.3804 42.3223L43.0372 36.6654L61.422 55.0502L79.0996 37.3726L84.7565 43.0294L67.0788 60.707L84.0494 77.6776L78.3926 83.3345L61.422 66.3639L43.7443 84.0416L38.0874 78.3848L55.7651 60.707Z" fill="#FD0707"/>
</svg>
